<?xml version="1.0" encoding="UTF-8" standalone="no"?>
<svg
   xmlns:dc="http://purl.org/dc/elements/1.1/"
   xmlns:cc="http://creativecommons.org/ns#"
   xmlns:rdf="http://www.w3.org/1999/02/22-rdf-syntax-ns#"
   xmlns:svg="http://www.w3.org/2000/svg"
   xmlns="http://www.w3.org/2000/svg"
   xmlns:sodipodi="http://sodipodi.sourceforge.net/DTD/sodipodi-0.dtd"
   xmlns:inkscape="http://www.inkscape.org/namespaces/inkscape"
   width="96"
   height="160"
   viewBox="0 0 25.399999 42.333334"
   version="1.1"
   id="svg8"
   inkscape:version="1.0.1 (3bc2e813f5, 2020-09-07)"
   sodipodi:docname="shotgun_bullet.svg"
   inkscape:export-filename="C:\Users\Dawid\Desktop\Godot\Inkscape\Assets\Weapons\Shotgun\shotgun_bullet.png"
   inkscape:export-xdpi="96"
   inkscape:export-ydpi="96">
  <defs
     id="defs2">
    <filter
       inkscape:collect="always"
       style="color-interpolation-filters:sRGB"
       id="filter963"
       x="-0.025741578"
       width="1.0514832"
       y="-0.015047579"
       height="1.0300952">
      <feGaussianBlur
         inkscape:collect="always"
         stdDeviation="0.8811798"
         id="feGaussianBlur965" />
    </filter>
    <filter
       inkscape:collect="always"
       style="color-interpolation-filters:sRGB"
       id="filter1158"
       x="-0.068823319"
       width="1.1376466"
       y="-0.028762692"
       height="1.0575254">
      <feGaussianBlur
         inkscape:collect="always"
         stdDeviation="0.13255478"
         id="feGaussianBlur1160" />
    </filter>
  </defs>
  <sodipodi:namedview
     id="base"
     pagecolor="#ffffff"
     bordercolor="#666666"
     borderopacity="1.0"
     inkscape:pageopacity="0.0"
     inkscape:pageshadow="2"
     inkscape:zoom="2.8"
     inkscape:cx="-11.687718"
     inkscape:cy="106.222"
     inkscape:document-units="mm"
     inkscape:current-layer="g1403"
     inkscape:document-rotation="0"
     showgrid="false"
     units="px"
     inkscape:window-width="1920"
     inkscape:window-height="1017"
     inkscape:window-x="1358"
     inkscape:window-y="-8"
     inkscape:window-maximized="1"
     inkscape:snap-smooth-nodes="false"
     inkscape:object-nodes="false"
     inkscape:snap-nodes="false" />
  <metadata
     id="metadata5">
    <rdf:RDF>
      <cc:Work
         rdf:about="">
        <dc:format>image/svg+xml</dc:format>
        <dc:type
           rdf:resource="http://purl.org/dc/dcmitype/StillImage" />
        <dc:title></dc:title>
      </cc:Work>
    </rdf:RDF>
  </metadata>
  <g
     inkscape:label="Layer 1"
     inkscape:groupmode="layer"
     id="layer1">
    <g
       id="g1384"
       transform="translate(-0.12992932,0.04724702)">
      <g
         id="g1403"
         transform="matrix(3.0722705,0,0,3.0722705,-0.54169542,-0.01123756)">
        <g
           id="g1164"
           transform="matrix(1.1112896,0,0,1.105184,-0.66008898,-0.79443594)">
          <path
             id="path19"
             style="fill:#0088aa;stroke-width:0.557189;stroke-linecap:round;stroke-linejoin:round;filter:url(#filter963)"
             d="M 36.744141,10.474609 A 54.169422,70.271334 0 0 0 8.7578125,20.582031 48.231934,62.568923 0 0 1 14.902344,20.072266 48.231934,62.568923 0 0 1 63.134766,82.640625 48.231934,62.568923 0 0 1 15.177734,145.20703 54.169422,70.271334 0 0 0 36.744141,151.01758 54.169422,70.271334 0 0 0 90.914062,80.746094 54.169422,70.271334 0 0 0 36.744141,10.474609 Z"
             transform="matrix(0.0861198,0,0,0.0861198,0.2186086,-0.0117208)" />
          <path
             id="path857"
             style="fill:#80e5ff;stroke-width:0.047985;stroke-linecap:round;stroke-linejoin:round;filter:url(#filter1158)"
             d="M 3.1542969,1.4179688 C 2.3956432,1.4261824 3.681246,1.732283 3.8384676,2.0043907 6.5540017,4.0676152 6.8860669,8.3558353 4.96875,11.064453 4.5571765,11.622639 4.0492593,12.115495 3.4511719,12.470703 5.5707477,12.380506 7.0312178,10.37225 7.3747132,8.4255256 7.9321432,5.9511792 7.0776526,2.9143394 4.7069508,1.6988027 4.2237762,1.4796512 3.6836967,1.3802561 3.1542969,1.4179688 Z" />
        </g>
      </g>
    </g>
  </g>
</svg>
